<svg xmlns="http://www.w3.org/2000/svg" viewBox="-211.964 1314.052 84.964 66.748"><defs><style>.a{fill:#999;}</style></defs><g transform="translate(-211.964 1314.052)"><g transform="translate(0 0)"><path class="a" d="M152.2,625.523H133.982v-6.067a6.07,6.07,0,0,0-6.066-6.066H103.649a6.07,6.07,0,0,0-6.066,6.066v6.067H79.366a6.07,6.07,0,0,0-6.066,6.067v18.2h3.042v24.283a6.069,6.069,0,0,0,6.066,6.066h66.765a6.07,6.07,0,0,0,6.066-6.066V649.806h3.025V631.589A6.07,6.07,0,0,0,152.2,625.523Zm-51.59-6.067a3.038,3.038,0,0,1,3.042-3.042h24.283a3.038,3.038,0,0,1,3.042,3.042v6.067H100.608Zm51.59,54.615a3.038,3.038,0,0,1-3.042,3.042H82.408a3.038,3.038,0,0,1-3.042-3.042V649.806h9.108v3.042a3.038,3.038,0,0,0,3.042,3.042h6.066a3.038,3.038,0,0,0,3.042-3.042v-3.042h30.349v3.042a3.038,3.038,0,0,0,3.042,3.042h6.066a3.038,3.038,0,0,0,3.042-3.042v-3.042h9.108v24.266ZM91.5,652.831v-9.108h6.066v9.108Zm42.482,0v-9.108h6.066v9.108Zm21.241-6.067H143.09v-3.042a3.039,3.039,0,0,0-3.042-3.04h-6.066a3.039,3.039,0,0,0-3.042,3.042v3.042H100.608v-3.042a3.039,3.039,0,0,0-3.042-3.042H91.5a3.039,3.039,0,0,0-3.042,3.042v3.042H76.342V631.591a3.038,3.038,0,0,1,3.042-3.042h72.832a3.038,3.038,0,0,1,3.042,3.042v15.174h-.034Z" transform="translate(-73.3 -613.39)"/></g></g></svg>