<svg xmlns="http://www.w3.org/2000/svg" viewBox="0 0 44.89 59.42"><defs><style>.a{fill:#999;}</style></defs><title>icons-report</title><path class="a" d="M222.57,178.53c0,6.82,0,13.64,0,20.46,0,3.78-1.11,4.94-4.89,5q-14.79.09-29.61,0c-3.78,0-4.9-1.18-5-4.92-0.07-4,0-8,0-12,0-.89-0.08-2.12,1.34-2,1.13,0.09,1,1.15,1.05,2,0,3.78.07,7.56,0,11.34,0,2.24.83,3.26,3.15,3.24q14.16-.08,28.35,0c2.52,0,3.24-1.13,3.24-3.47q-0.09-19.53,0-39.06c0-2.38-.58-3.89-3.31-3.78-0.78,0-1.89.08-1.94-1.07,0-1.37,1.21-1.19,2.1-1.26,3.69-.28,5.46,1.3,5.49,5C222.6,164.89,222.57,171.71,222.57,178.53Z" transform="translate(-177.69 -144.58)"/><path class="a" d="M216.46,180a1.55,1.55,0,0,1-.38.74c-3.28,1.39-3,4.83-4.21,7.35-0.47.93-.59,2.36-1.82,2.24s-1.41-1.61-1.59-2.75c-0.43-2.8-.84-5.6-1.32-8.39-0.13-.74.22-1.93-1-2a1.61,1.61,0,0,0-1.3,1.58,2.69,2.69,0,0,1-3.33,2.52c-3.19-.48-5.2.79-6.34,3.78-0.37,1-.91,2.1-2.16,2s-1.2-1.53-1.44-2.52c-0.4-1.63-.74-3.27-1.12-4.91-0.14-.6-0.16-1.32-0.94-1.46s-1,.48-1.41,1c-1.26,1.79-7.73,3-9.71,1.83a1.1,1.1,0,0,1-.68-1.26,1,1,0,0,1,1.2-.79c5.56,1,8.32-1.78,9.56-6.81a1.34,1.34,0,0,1,1.42-1,1.93,1.93,0,0,1,1.4,1.5q0.8,3.36,1.5,6.75c0.26,1.26.91,2.32,2,1,1.26-1.64,2.84-1.66,4.49-1.51,2.32,0.21,3.51-.84,4.08-3,0.48-1.82,1-3.64,1.62-5.42,0.35-1,.5-2.56,2-2.39,1.32,0.16,1.15,1.56,1.3,2.57,0.47,3.11.92,6.22,1.4,9.34,0.13,0.81.09,1.85,1.15,2s1-.89,1.23-1.52c0.54-1.52,1.73-1.67,3.06-1.58a1.26,1.26,0,0,1,1.39,1.11h0Z" transform="translate(-177.69 -144.58)"/><path class="a" d="M202.72,159.81h-4.41c-2.22,0-4.84.25-5.17-2.73-0.29-2.61-1.26-5.89,2.77-7,1.13-.3,1.48-1.31,1.93-2.29a5.47,5.47,0,0,1,9.94-.08c0.63,1.34,1.26,2.31,2.75,2.68s2,1.59,2.15,3.1c0.43,5.13-.63,6.3-5.88,6.3h-4.08Zm0.18-7.19h-5c-1.4,0-2.46.42-2.52,2.12a2.21,2.21,0,0,0,2.43,2.58c3.36,0,6.71,0,10.08,0a2.11,2.11,0,0,0,2.34-2.34c0-1.81-1-2.38-2.58-2.37S204.47,152.62,202.9,152.62Zm-0.07-2.43c1-.16,2.41.25,2.46-1.2s-1.13-1.89-2.36-1.95-2.66.52-2.59,2,1.56,0.91,2.49,1.13h0Z" transform="translate(-177.69 -144.58)"/><path class="a" d="M183.2,163.46a64.68,64.68,0,0,1,.05-6.93c0.31-2.86,4-4.65,6.58-3.39a1.13,1.13,0,0,1,.76,1.22,1,1,0,0,1-1.1.91c-4.21-.32-4.06,2.48-4,5.37,0.08,3.15,0,6.3,0,9.45,0,0.86-.05,1.89-1.08,2-1.34.11-1.29-1.11-1.31-2,0-2.2,0-4.41,0-6.61h0.09Z" transform="translate(-177.69 -144.58)"/></svg>