<svg xmlns="http://www.w3.org/2000/svg" viewBox="763.477 237.5 40.723 40.8"><defs><style>.a{fill:#999;stroke:#999;stroke-width:1px;}</style></defs><g transform="translate(763.477 237.6)"><g transform="translate(0.5 0.4)"><path class="a" d="M39.224,17.534,35.075,16.3a19.621,19.621,0,0,0-1.537-3.688l2.075-3.842a.884.884,0,0,0,0-1.306L33.078,4.933a.884.884,0,0,0-1.306,0L27.93,7.008a12.939,12.939,0,0,0-3.688-1.537L23.012,1.322A.888.888,0,0,0,22.09.4H18.479a.934.934,0,0,0-.922.922L16.328,5.471A19.621,19.621,0,0,0,12.64,7.008L8.8,4.933a.884.884,0,0,0-1.306,0L5.033,7.546a.884.884,0,0,0,0,1.306l2.075,3.842a12.939,12.939,0,0,0-1.537,3.688L1.422,17.611a.934.934,0,0,0-.922.922v3.611a.934.934,0,0,0,.922.922L5.571,24.3a19.621,19.621,0,0,0,1.537,3.688L5.033,31.825a.884.884,0,0,0,0,1.306l2.536,2.536a.884.884,0,0,0,1.306,0l3.842-2.075A12.939,12.939,0,0,0,16.4,35.129l1.229,4.149a.934.934,0,0,0,.922.922h3.611a.934.934,0,0,0,.922-.922l1.229-4.149a19.621,19.621,0,0,0,3.688-1.537l3.842,2.075a.884.884,0,0,0,1.306,0l2.536-2.536a.884.884,0,0,0,0-1.306l-2.075-3.842A12.939,12.939,0,0,0,35.152,24.3L39.3,23.066a.934.934,0,0,0,.922-.922V18.533C40.069,17.995,39.685,17.534,39.224,17.534ZM38.3,21.453l-4.764,1.383a14.721,14.721,0,0,1-2,4.917l2.382,4.38L32.232,33.9l-4.456-2.459a12.1,12.1,0,0,1-4.917,2L21.476,38.2H19.017l-1.383-4.764a14.314,14.314,0,0,1-4.841-2l-4.38,2.382-1.69-1.767,2.382-4.38a12.225,12.225,0,0,1-2-4.841L2.344,21.453V18.994l4.687-1.383a14.314,14.314,0,0,1,2-4.841L6.647,8.391,8.337,6.7l4.38,2.382a12.225,12.225,0,0,1,4.841-2L18.94,2.321H21.4l1.537,4.687a14.314,14.314,0,0,1,4.841,2l4.38-2.382,1.767,1.69-2.382,4.38a12.225,12.225,0,0,1,2,4.841L38.3,18.917v2.536ZM20.323,13.078A7.222,7.222,0,1,0,27.546,20.3,7.214,7.214,0,0,0,20.323,13.078Zm0,12.6A5.378,5.378,0,1,1,25.7,20.3,5.345,5.345,0,0,1,20.323,25.678Z" transform="translate(-0.5 -0.4)"/></g></g></svg>