<svg xmlns="http://www.w3.org/2000/svg" xmlns:xlink="http://www.w3.org/1999/xlink" viewBox="0 0 24.04 47.91"><defs><style>.a{fill:none;}.b{clip-path:url(#a);}.c{clip-path:url(#b);}.d{fill:#2d4275;}</style><clipPath id="a" transform="translate(-134.7 -221.52)"><rect class="a" x="134.79" y="221.48" width="23.95" height="47.91" transform="translate(-0.98 0.59) rotate(-0.23)"/></clipPath><clipPath id="b" transform="translate(-134.7 -221.52)"><rect class="a" x="134.79" y="221.48" width="23.95" height="47.91" transform="matrix(1, 0, 0, 1, -0.98, 0.59)"/></clipPath></defs><title>icon_chevron_blue_rt</title><g class="b"><g class="c"><path class="d" d="M158.74,245.39a0.88,0.88,0,0,0-.24-0.59l-22.33-23a0.85,0.85,0,0,0-.61-0.27,0.86,0.86,0,0,0-.62,1.46L156.7,245.4,135.12,268a0.88,0.88,0,0,0-.24.59,0.85,0.85,0,0,0,.86.85,0.84,0.84,0,0,0,.61-0.27L158.49,246a0.8,0.8,0,0,0,.25-0.59" transform="translate(-134.7 -221.52)"/></g></g></svg>