<svg xmlns="http://www.w3.org/2000/svg" viewBox="310.219 367 36 36.449"><defs><style>.a{fill:#999;}</style></defs><g transform="translate(310.219 366.911)"><g transform="translate(0 0.089)"><path class="a" d="M10.485,7.412a12.962,12.962,0,0,1,13-1.136,15.253,15.253,0,0,1,2.866,1.846l-3.5,3.551h9.786V1.73L29.779,4.642A16.058,16.058,0,0,0,25.515,1.8a17.8,17.8,0,0,0-17.9,1.562A18.248,18.248,0,0,0,0,18.278H4.893A13.335,13.335,0,0,1,10.485,7.412ZM31.037,18.278a13.152,13.152,0,0,1-5.592,10.866,12.962,12.962,0,0,1-13,1.136,15.253,15.253,0,0,1-2.866-1.846l3.5-3.551H3.285v9.943l2.866-2.841a16.059,16.059,0,0,0,4.264,2.841,17.8,17.8,0,0,0,17.9-1.562A18.444,18.444,0,0,0,36,18.278Z" transform="translate(0 -0.089)"/></g></g></svg>