<svg xmlns="http://www.w3.org/2000/svg" xmlns:xlink="http://www.w3.org/1999/xlink" viewBox="0 0 61 61"><defs><style>.a{fill:none;}.b,.e{fill:#fff;}.b{stroke:#666;stroke-miterlimit:10;}.c{fill:#2d4275;}.d{clip-path:url(#a);}</style><clipPath id="a" transform="translate(-502.32 -143.5)"><rect class="a" x="512.81" y="186.3" width="40.02" height="9.05"/></clipPath></defs><title>icon_voith_framework7</title><rect class="b" x="0.5" y="0.5" width="60" height="60" rx="12" ry="12"/><path class="c" d="M1.11,36.15H59.86a0.17,0.17,0,0,1,.17.17V48.6A11.41,11.41,0,0,1,48.63,60H12.42A11.49,11.49,0,0,1,.94,48.52V36.32A0.17,0.17,0,0,1,1.11,36.15Z"/><g class="d"><polygon class="e" points="17.02 43.05 15.23 47.91 13.45 43.05 10.49 43.05 14.22 51.72 16.23 51.72 19.98 43.05 17.02 43.05"/><g class="d"><path class="e" d="M531.4,190.82a4.52,4.52,0,1,0-4.52,4.53,4.51,4.51,0,0,0,4.52-4.53m-2.47,0a2.05,2.05,0,0,1-2,2.08,2.08,2.08,0,0,1-2.08-2.08,2.05,2.05,0,0,1,2.08-2,2,2,0,0,1,2,2" transform="translate(-502.32 -143.5)"/><polygon class="e" points="30.69 43.05 32.02 43.05 33.36 43.05 33.36 51.72 30.69 51.72 30.69 43.05"/><polygon class="e" points="39.49 45.63 39.49 51.72 36.8 51.72 36.8 45.63 34.98 45.63 34.98 43.05 41.31 43.05 41.31 45.63 39.49 45.63"/><polygon class="e" points="47.83 51.72 47.83 48.59 45.6 48.59 45.6 51.72 42.93 51.72 42.93 43.05 45.6 43.05 45.6 46.02 47.83 46.02 47.83 43.05 50.51 43.05 50.51 51.72 47.83 51.72"/></g></g></svg>