<svg xmlns="http://www.w3.org/2000/svg" viewBox="0 0 57.51 57.51"><defs><style>.a{fill:#999;}</style></defs><title>icon_news</title><path class="a" d="M412.18,216H372.65a5.39,5.39,0,0,0-5.39,5.39V225h-1.79a5.39,5.39,0,0,0-5.39,5.39v35.94a7.19,7.19,0,0,0,7.19,7.19h43.13a7.19,7.19,0,0,0,7.19-7.19V221.39A5.39,5.39,0,0,0,412.18,216ZM414,266.32a3.59,3.59,0,0,1-3.59,3.59H367.27a3.59,3.59,0,0,1-3.59-3.59V230.38a1.8,1.8,0,0,1,1.79-1.79h1.79v35.94a1.79,1.79,0,1,0,3.59,0V221.39a1.8,1.8,0,0,1,1.79-1.79H412.2a1.8,1.8,0,0,1,1.79,1.79v44.92h0Z" transform="translate(-360.07 -216)"/><path class="a" d="M395.12,239.37h14.38a0.9,0.9,0,0,0,0-1.79H395.12A0.9,0.9,0,0,0,395.12,239.37Z" transform="translate(-360.07 -216)"/><path class="a" d="M395.12,234h14.38a0.9,0.9,0,0,0,0-1.79H395.12A0.9,0.9,0,0,0,395.12,234Z" transform="translate(-360.07 -216)"/><path class="a" d="M395.12,228.59h14.38a0.9,0.9,0,0,0,0-1.79H395.12A0.9,0.9,0,0,0,395.12,228.59Z" transform="translate(-360.07 -216)"/><path class="a" d="M389.72,264.52H375.35a0.9,0.9,0,1,0,0,1.79h14.38A0.9,0.9,0,1,0,389.72,264.52Z" transform="translate(-360.07 -216)"/><path class="a" d="M389.72,259.14H375.35a0.9,0.9,0,1,0,0,1.79h14.38A0.9,0.9,0,1,0,389.72,259.14Z" transform="translate(-360.07 -216)"/><path class="a" d="M389.72,253.75H375.35a0.9,0.9,0,1,0,0,1.79h14.38A0.9,0.9,0,1,0,389.72,253.75Z" transform="translate(-360.07 -216)"/><path class="a" d="M409.49,264.52H395.12a0.9,0.9,0,0,0,0,1.79h14.38A0.9,0.9,0,1,0,409.49,264.52Z" transform="translate(-360.07 -216)"/><path class="a" d="M409.49,259.14H395.12a0.9,0.9,0,0,0,0,1.79h14.38A0.9,0.9,0,1,0,409.49,259.14Z" transform="translate(-360.07 -216)"/><path class="a" d="M409.49,253.75H395.12a0.9,0.9,0,0,0,0,1.79h14.38A0.9,0.9,0,1,0,409.49,253.75Z" transform="translate(-360.07 -216)"/><path class="a" d="M409.49,243H375.35a0.9,0.9,0,0,0,0,1.79h34.15A0.9,0.9,0,0,0,409.49,243Z" transform="translate(-360.07 -216)"/><path class="a" d="M409.49,248.35H375.35a0.9,0.9,0,1,0,0,1.79h34.15A0.9,0.9,0,1,0,409.49,248.35Z" transform="translate(-360.07 -216)"/><path class="a" d="M376.24,239.36h12.58a1.8,1.8,0,0,0,1.79-1.79V225a1.8,1.8,0,0,0-1.79-1.79H376.24a1.8,1.8,0,0,0-1.79,1.79v12.57A1.8,1.8,0,0,0,376.24,239.36ZM378,226.79h9v9h-9v-9h0Z" transform="translate(-360.07 -216)"/></svg>