<svg xmlns="http://www.w3.org/2000/svg" viewBox="0 0 74.09 79"><defs><style>.a{isolation:isolate;}.b{fill:#999;}</style></defs><title>icon_contact</title><g class="a"><path class="b" d="M73.3,58.28c-1.78-1.84-15.78-5.49-22.23-7.1,6.93-5.42,11.16-15.44,11.16-25C62.23,12.28,58.19,1,40,1S17.76,12.28,17.76,26.2c0,9.58,4.25,19.62,11.22,25-6.6,1.62-20.39,5.17-22.23,7.05C2.89,62.23,1.32,74.08,5.19,80H74.82C78.65,74.08,77.13,62.23,73.3,58.28ZM72.1,75.07H7.9c-1-4.07.41-10.59,2-12.62,2.49-1.37,13.33-4.37,22.67-6.57V48c-6.2-4.21-9.87-13.37-9.87-21.7C22.72,15,25.6,5.92,40,5.92S57.27,15,57.27,26.29c0,8.32-3.67,17.48-9.86,21.69v7.82c9.29,2.23,20.18,5.29,22.71,6.64C71.71,64.5,73.09,71,72.1,75.07Z" transform="translate(-2.96 -1)"/></g></svg>