<svg xmlns="http://www.w3.org/2000/svg" viewBox="0 0 76.24 30.34"><defs><style>.a{fill:#fff;stroke:#999;stroke-miterlimit:10;stroke-width:2px;}</style></defs><title>icons-oil</title><path class="a" d="M392.87,164.33l-26.78,8.09c-2.41-2.38-2.41-2.38-5.9-2.38-1.39,0-2.79.1-4.17,0a2.42,2.42,0,0,1-2.43-2.71c0-1.62.81-2.25,2.34-2.21a1.59,1.59,0,0,0,1.41-.42,4.38,4.38,0,0,0-.28-3.1H346.22V165a6.42,6.42,0,0,1,1.68.2c0.95,0.38,1.89.86,2,2.08,0.05,1,.18,2.18-0.95,2.53a12.69,12.69,0,0,1-6.17.11c-1.43-.28-1.74-1.92-1.8-3.26-5.06-1.41-9.64-3.85-14.86-5.25H326a2.37,2.37,0,0,1-.37,0h0l-0.08,0-0.23.12,0,0,0,0,0,0.06a2,2,0,0,1-.19.33l0,0v0a0.36,0.36,0,0,1,0,.07l-1.69,7.74h0a2.47,2.47,0,0,0-.1.48c0,1.61-.2,2.69,1.11,3.45,2.84,1.64,6.14,1.82,9.09,3.17,2.16,1,3.93,2.66,4,5.07,0,1.46,0,2.92,0,4.38,0.05,2.38.87,3.24,3.21,3.24h29.8a3.81,3.81,0,0,0,3.11-1.17c1.08-1.13,1.7-2.54,2.69-3.6,3-3.27,5.19-7.21,8.25-10.46,1.67-1.78,2.58-4.26,5.15-5.22a2.55,2.55,0,0,1,2.34-.13c2.71,1.65,3.1,1.6,5.11-1C395.85,166.41,394.07,165.4,392.87,164.33Zm-55.49,9.11a0.76,0.76,0,0,1-.4.57h-0.16l-0.11,0h0c-0.2,0-.39,0-0.58,0l-0.09,0-8.35-2.63-0.18,0a0.42,0.42,0,0,1-.31-0.4,5.29,5.29,0,0,0,0-.75l0.26-3.66h0a0.42,0.42,0,0,1,.1-0.19,0.35,0.35,0,0,1,.33-0.16,7,7,0,0,1,1,.18h0l0.19,0,6,2.08h0a0.36,0.36,0,0,1,.19.05l0.05,0a0.39,0.39,0,0,1,.13,0l0.06,0a6,6,0,0,0,.81.27h0l0.23,0h0a0.05,0.05,0,0,1,.07,0l0.13,0a0.76,0.76,0,0,1,.37.55,0.56,0.56,0,0,1,0,.18l0.11,3.16C337.35,173,337.37,173.22,337.37,173.44Z" transform="translate(-322.15 -160.36)"/><path class="a" d="M394.39,174.61c0.72,1.35,1.59,2.44,2.33,3.6a4.3,4.3,0,0,1,0,4.62c-1,1.75-2.71,1.78-4.41,1.25a2,2,0,0,1-1-1C389.9,180.35,391.45,176,394.39,174.61Z" transform="translate(-322.15 -160.36)"/></svg>