<svg xmlns="http://www.w3.org/2000/svg" xmlns:xlink="http://www.w3.org/1999/xlink" viewBox="0 0 59.92 59.92"><defs><style>.a,.d{fill:none;}.b{clip-path:url(#a);}.c{fill:#999;}.d{stroke:#999;stroke-miterlimit:10;}</style><clipPath id="a" transform="translate(-417.39 -143.83)"><rect class="a" x="417.14" y="143.58" width="60.42" height="60.42"/></clipPath></defs><title>icon_info</title><g class="b"><g class="b"><path class="c" d="M447.48,188.08a2.25,2.25,0,0,1-2.25-2.25V168.95a2.25,2.25,0,1,1,4.5,0v16.88a2.26,2.26,0,0,1-2.25,2.26" transform="translate(-417.39 -143.83)"/><path class="d" d="M447.48,188.08a2.25,2.25,0,0,1-2.25-2.25V168.95a2.25,2.25,0,1,1,4.5,0v16.88A2.26,2.26,0,0,1,447.48,188.08Z" transform="translate(-417.39 -143.83)"/><path class="c" d="M447.48,162.59a2.25,2.25,0,0,1-2.25-2.25v-0.9a2.25,2.25,0,1,1,4.5,0v0.9a2.26,2.26,0,0,1-2.25,2.25" transform="translate(-417.39 -143.83)"/><path class="d" d="M447.48,162.59a2.25,2.25,0,0,1-2.25-2.25v-0.9a2.25,2.25,0,1,1,4.5,0v0.9A2.26,2.26,0,0,1,447.48,162.59Z" transform="translate(-417.39 -143.83)"/><path class="c" d="M447.35,203.25a29.46,29.46,0,1,1,29.46-29.46,29.5,29.5,0,0,1-29.46,29.46m0-56.67a27.21,27.21,0,1,0,27.21,27.21,27.24,27.24,0,0,0-27.21-27.21" transform="translate(-417.39 -143.83)"/><path class="d" d="M447.35,203.25a29.46,29.46,0,1,1,29.46-29.46A29.5,29.5,0,0,1,447.35,203.25Zm0-56.67a27.21,27.21,0,1,0,27.21,27.21A27.24,27.24,0,0,0,447.35,146.58Z" transform="translate(-417.39 -143.83)"/></g></g></svg>