<svg xmlns="http://www.w3.org/2000/svg" viewBox="0 0 58.62 58.64"><defs><style>.a{fill:#999;}.b{fill:none;}</style></defs><title>icon_equipment</title><path class="a" d="M221,271.41c-0.32.78-.69,1.55-1,2.33a0.67,0.67,0,0,1-.87.48c-1.47-.23-1.47-0.21-1.53-1.73,0-.49-0.06-1,0-1.46a0.62,0.62,0,0,0-.6-0.74,1,1,0,0,0-.69.37c-0.49.67-.93,1.39-1.43,2.18-0.55-.2-1.1-0.38-1.62-0.61a0.62,0.62,0,0,1-.26-0.51,17.69,17.69,0,0,1,.26-2.21,0.91,0.91,0,0,0-.8-1.26c-0.67.74-1.39,1.49-2.07,2.22a0.69,0.69,0,0,1-.18,0c-1.72-.9-1.72-0.9-1.13-2.76,0.08-.25.15-0.49,0.23-0.72,0.26-.83.26-0.83-0.54-1.38l-2.53,1.9-1.59-1.33,1.23-2.44c0.37-.72.37-0.72-0.32-1.36l-2.82,1.43-1.33-1.59c0.57-.74,1.06-1.49,1.66-2.15a0.86,0.86,0,0,0-.11-1.41l-3,.9c-0.34-.6-0.69-1.18-1-1.79,0.74-.69,1.43-1.36,2.16-2a0.58,0.58,0,0,0,.15-0.9,1,1,0,0,0-.72-0.26c-0.84.06-1.67,0.18-2.47,0.28a0.57,0.57,0,0,1-.14-0.14c-0.77-1.75-.77-1.75.84-2.79a5.88,5.88,0,0,0,1-.69,1.25,1.25,0,0,0,.25-0.84,0.75,0.75,0,0,0-.55-0.35c-0.7-.08-1.43-0.09-2.15-0.11a0.59,0.59,0,0,1-.66-0.63c-0.23-1.46-.26-1.46,1.07-2a10.38,10.38,0,0,0,1.39-.61,1.06,1.06,0,0,0,.44-0.72,0.84,0.84,0,0,0-.54-0.54,12.14,12.14,0,0,0-1.93-.44,0.62,0.62,0,0,1-.63-0.77c0-.48,0-1,0-1.49,0.9-.21,1.73-0.44,2.57-0.58a0.89,0.89,0,0,0,.87-1.16c-0.67-.29-1.43-0.66-2.21-0.93a0.76,0.76,0,0,1-.57-1c0.25-1.36.23-1.36,1.67-1.41a9.36,9.36,0,0,0,1.61-.11,1.06,1.06,0,0,0,.63-0.58,0.84,0.84,0,0,0-.34-0.63,11.15,11.15,0,0,0-1.09-.72c-0.37-.23-0.72-0.48-1.12-0.74,0.23-.64.46-1.26,0.7-1.95,0.9,0.11,1.79.14,2.65,0.32a0.88,0.88,0,0,0,1.23-.8l-2.24-2.08a0.2,0.2,0,0,1,0-.12c0.86-1.76.86-1.76,2.74-1.2a4.41,4.41,0,0,1,.8.26,0.84,0.84,0,0,0,1.32-.58c-0.6-.81-1.23-1.64-1.89-2.51l1.33-1.59c0.8,0.4,1.59.77,2.36,1.21a0.9,0.9,0,0,0,1.44-.32l-1.41-2.8,1.59-1.33c0.8,0.6,1.59,1.16,2.34,1.78a0.58,0.58,0,0,0,.92,0,1,1,0,0,0,.14-0.77c-0.21-.81-0.49-1.61-0.72-2.38a0.47,0.47,0,0,1,.12-0.15c1.59-1,1.59-1,2.9.35,0.2,0.2.38,0.41,0.58,0.61,0.58,0.63.58,0.64,1.44,0.21-0.12-1-.23-2-0.37-3.13a14.4,14.4,0,0,1,1.59-.58,0.78,0.78,0,0,1,.63.31c0.48,0.66.87,1.38,1.36,2a1,1,0,0,0,.8.29,1,1,0,0,0,.43-0.64,2,2,0,0,0,0-.61c0.06-2,.06-2,2.16-2.33,0.37,0.86.75,1.73,1.1,2.62a0.69,0.69,0,0,0,.77.57,0.59,0.59,0,0,0,.58-0.64c0.14-.63.32-1.24,0.43-1.87a0.68,0.68,0,0,1,.8-0.67c1.44,0,1.44,0,1.76,1.36a9.44,9.44,0,0,1,.28,1.27,0.84,0.84,0,0,0,1.16.84c0.29-.69.64-1.44,0.93-2.22a0.69,0.69,0,0,1,1-.54c1.59,0.38,1.38-.15,1.46,1.69a7.81,7.81,0,0,0,.12,1.59,1.11,1.11,0,0,0,.58.63,0.81,0.81,0,0,0,.61-0.35c0.49-.67.93-1.39,1.41-2.1l0.12-.08,1.87,0.67c-0.11.9-.2,1.78-0.31,2.67s-0.11.84,0.77,1.21c0.7-.75,1.43-1.5,2.11-2.25,1.89,0.83,1.89.83,1.32,2.7a5.78,5.78,0,0,1-.28.87,0.84,0.84,0,0,0,.58,1.32c0.81-.61,1.64-1.23,2.5-1.89l1.59,1.33c-0.41.81-.78,1.62-1.23,2.38a0.88,0.88,0,0,0,.34,1.43c0.89-.46,1.82-0.92,2.79-1.43,0.46,0.54.9,1.06,1.35,1.59-0.61.81-1.23,1.58-1.76,2.38a1,1,0,0,0,0,.84,0.89,0.89,0,0,0,.74.21,14.69,14.69,0,0,0,2-.6,0.57,0.57,0,0,1,.86.32c0.21,0.43.48,0.84,0.75,1.32-0.67.63-1.29,1.27-2,1.82a0.84,0.84,0,0,0-.14,1.43l3.08-.37a14.6,14.6,0,0,1,.58,1.62,0.71,0.71,0,0,1-.28.58c-0.66.48-1.35,0.92-2.05,1.33a0.63,0.63,0,0,0-.32.89,1,1,0,0,0,.69.4,13.26,13.26,0,0,0,1.92.08,0.66,0.66,0,0,1,.78.69,13,13,0,0,0,.25,1.41c-0.9.38-1.78,0.78-2.68,1.13-0.38.15-.66,0.38-0.49,0.78a1.08,1.08,0,0,0,.64.54,8.08,8.08,0,0,0,1.78.41,0.72,0.72,0,0,1,.7.92c0,1.32,0,1.32-1.26,1.61l-1.49.35a0.73,0.73,0,0,0-.77.67c-0.06.58,0.35,0.6,0.67,0.75,0.72,0.32,1.44.61,2.21,1-0.09.52-.2,1-0.25,1.47a0.58,0.58,0,0,1-.67.63c-0.8,0-1.58.08-2.38,0.08a0.6,0.6,0,0,0-.7.61,1,1,0,0,0,.38.67c0.67,0.49,1.39.93,2.16,1.43-0.23.63-.44,1.24-0.7,1.95-0.89-.11-1.78-0.15-2.64-0.32a0.9,0.9,0,0,0-1.24.8l2.24,2.1c0,0.09,0,.15,0,0.18-0.89,1.69-.89,1.69-2.7,1.13l-0.8-.25c-0.81-.26-0.81-0.26-1.36.54,0.31,0.41.63,0.84,1,1.26l1,1.27-1.33,1.59-2.36-1.2c-0.78-.4-0.78-0.4-1.44.29l1.43,2.82L242.35,270l-2.74-2.05c-0.75.18-1,.58-0.63,1.24a3.68,3.68,0,0,1,.18.58c0.58,1.85.58,1.85-1.33,2.68-0.63-.67-1.27-1.36-1.9-2.07a0.7,0.7,0,0,0-.9-0.28,0.59,0.59,0,0,0-.34.8c0.11,0.83.2,1.67,0.29,2.48a0.46,0.46,0,0,1-.14.12c-1.73.8-1.73,0.8-2.76-.78a5.62,5.62,0,0,0-.69-1,1.07,1.07,0,0,0-.8-0.31,0.83,0.83,0,0,0-.44.63,17.18,17.18,0,0,0-.09,2,0.61,0.61,0,0,1-.64.75,13.08,13.08,0,0,0-1.47.26c-0.35-.84-0.74-1.7-1.07-2.57a0.78,0.78,0,0,0-.87-0.64c-0.55,0-.46.46-0.54,0.77a13.27,13.27,0,0,0-.4,1.72,0.65,0.65,0,0,1-.8.66c-1.43,0-1.44,0-1.76-1.36a12.58,12.58,0,0,1-.28-1.27A0.94,0.94,0,0,0,221,271.41Zm4.67-46.68a20.93,20.93,0,1,0,20.92,21.06A20.95,20.95,0,0,0,225.69,224.73Z" transform="translate(-196.44 -216.36)"/><path class="a" d="M243.71,245.67a18,18,0,1,1-18-18.05A18,18,0,0,1,243.71,245.67Zm-18.13,14.88a14.9,14.9,0,1,0-14.8-15A15,15,0,0,0,225.58,260.55Z" transform="translate(-196.44 -216.36)"/><path class="b" d="M225.58,260.55a14.91,14.91,0,1,1,15-14.76A14.93,14.93,0,0,1,225.58,260.55Z" transform="translate(-196.44 -216.36)"/></svg>