<svg xmlns="http://www.w3.org/2000/svg" viewBox="0 0 25.89 54.74"><defs><style>.a{fill:#999;}</style></defs><title>icons-wifi</title><path class="a" d="M67.32,173.37l10.08-10.08a1.62,1.62,0,0,0,.47-1.13,1.6,1.6,0,0,0-.47-1.13L66.76,150.38V147.6a1.6,1.6,0,0,0-3.2,0V170l-8.84-8.84a1.6,1.6,0,1,0-2.27,2.27l10,10-10,10a1.59,1.59,0,0,0,0,2.26,1.57,1.57,0,0,0,1.13.47,1.59,1.59,0,0,0,1.14-.47l8.84-8.81v22.37a1.6,1.6,0,1,0,3.2,0v-2.78l10.65-10.65a1.62,1.62,0,0,0,.47-1.13,1.6,1.6,0,0,0-.47-1.13ZM74,162.16l-7.26,7.25V154.9Zm-7.26,29.67V177.33L74,184.57Z" transform="translate(-51.99 -146)"/></svg>