<svg xmlns="http://www.w3.org/2000/svg" viewBox="765.518 47.391 39.682 32.409"><defs><style>.a{fill:#999;}</style></defs><g transform="translate(765.518 47.391)"><path class="a" d="M31.58,23.478a.872.872,0,0,0-.893.893h0v6.252H1.786V9.059h8.1a.893.893,0,1,0,0-1.786h-9A.822.822,0,0,0,0,8.1V31.516a.872.872,0,0,0,.893.893H31.58a.872.872,0,0,0,.893-.893h0V24.307h0A.953.953,0,0,0,31.58,23.478Zm8.1-10.846a.785.785,0,0,0-.319-.638h0L26.8.255h0A.819.819,0,0,0,26.157,0a.872.872,0,0,0-.893.893h0V7.209C21.5,7.464,7.209,9.314,7.209,22.521v2.361s4.657-8.294,18.055-8.613v6.252h0a.872.872,0,0,0,.893.893,1.029,1.029,0,0,0,.574-.191h0a.062.062,0,0,0,.064-.064l12.5-9.825h0A.8.8,0,0,0,39.682,12.632ZM27.05,20.67V15.311h0a.872.872,0,0,0-.893-.893h0c-9.187,0-14.418,3.254-16.906,5.487.766-4.211,3.509-7.273,8.166-9.187A25.513,25.513,0,0,1,26.093,9h.064A.872.872,0,0,0,27.05,8.1h0V3l10.335,9.57Z"/></g></svg>