<svg xmlns="http://www.w3.org/2000/svg" xmlns:xlink="http://www.w3.org/1999/xlink" viewBox="0 0 65.95 50.6"><defs><style>.a,.d{fill:none;}.b{clip-path:url(#a);}.c{clip-path:url(#b);}.d{stroke:#999;stroke-miterlimit:10;stroke-width:2px;}</style><clipPath id="a" transform="translate(-423.27 -44.78)"><rect class="a" x="423" y="36.95" width="66.27" height="66.27"/></clipPath><clipPath id="b" transform="translate(-423.27 -44.78)"><rect class="a" x="423" y="36.95" width="66.27" height="66.27"/></clipPath></defs><title>icons</title><g class="b"><g class="c"><path class="d" d="M484.38,53.45H472.87c-3.7,0-5.15-7.67-9-7.67H447.29c-2.56,0-3.84,7.67-7.67,7.67H428.1a3.83,3.83,0,0,0-3.84,3.84V90.54a3.83,3.83,0,0,0,3.84,3.84h56.28a3.83,3.83,0,0,0,3.84-3.84V57.29A3.83,3.83,0,0,0,484.38,53.45ZM456.24,88a15.35,15.35,0,1,1,15.35-15.35A15.34,15.34,0,0,1,456.24,88Zm18.55-26.86a1.92,1.92,0,1,1,1.92-1.92A1.92,1.92,0,0,1,474.79,61.13ZM437.06,49.62a1.28,1.28,0,0,0-1.28-1.28h-3.84a1.28,1.28,0,0,0-1.28,1.28v1.28h6.4V49.62Zm19.19,11.51a11.51,11.51,0,1,0,11.51,11.51A11.51,11.51,0,0,0,456.24,61.13Z" transform="translate(-423.27 -44.78)"/></g></g></svg>