<svg id="Layer_1" data-name="Layer 1" xmlns="http://www.w3.org/2000/svg" xmlns:xlink="http://www.w3.org/1999/xlink" viewBox="0 0 24.2 47.91"><defs><style>.cls-1{fill:none;}.cls-2{clip-path:url(#clip-path);}.cls-3{clip-path:url(#clip-path-2);}.cls-4{fill:#2d4275;}</style><clipPath id="clip-path" transform="translate(-508.09 -43.47)"><rect class="cls-1" x="508.09" y="43.59" width="23.95" height="47.91" transform="translate(-0.7 5.66) rotate(-0.62)"/></clipPath><clipPath id="clip-path-2" transform="translate(-508.09 -43.47)"><rect class="cls-1" x="508.09" y="43.59" width="23.95" height="47.91" transform="translate(-0.7 5.66) rotate(-0.62)"/></clipPath></defs><title>icon_chevron_blue</title><g id="chevron-gray"><g class="cls-2"><g class="cls-3"><path class="cls-4" d="M508.09,67.67a0.88,0.88,0,0,0,.25.59l22.49,22.85a0.85,0.85,0,0,0,.62.26,0.86,0.86,0,0,0,.61-1.46L510.13,67.65l21.42-22.74a0.88,0.88,0,0,0,.23-0.6,0.85,0.85,0,0,0-.86-0.84,0.84,0.84,0,0,0-.61.28l-22,23.34a0.8,0.8,0,0,0-.24.59" transform="translate(-508.09 -43.47)"/></g></g></g></svg>