<svg xmlns="http://www.w3.org/2000/svg" viewBox="315.219 107.844 33.781 23.387"><defs><style>.a{fill:#2d4275;}</style></defs><g transform="translate(314.219 94.844)"><g transform="translate(1 13)"><path class="a" d="M2.3,13H33.482a1.3,1.3,0,0,1,1.3,1.3,1.332,1.332,0,0,1-1.3,1.3H2.3a1.3,1.3,0,0,1,0-2.6Z" transform="translate(-1 -13)"/><g transform="translate(0 10.394)"><path class="a" d="M33.482,39.6H2.3a1.3,1.3,0,1,1,0-2.6H33.482a1.3,1.3,0,0,1,1.3,1.3A1.276,1.276,0,0,1,33.482,39.6Z" transform="translate(-1 -37)"/></g><g transform="translate(0 20.789)"><path class="a" d="M33.482,63.6H2.3a1.3,1.3,0,1,1,0-2.6H33.482a1.3,1.3,0,1,1,0,2.6Z" transform="translate(-1 -61)"/></g></g></g></svg>