<svg xmlns="http://www.w3.org/2000/svg" viewBox="0 0 56.45 56.43"><defs><style>.a{fill:#999;}</style></defs><title>icon_finder</title><path class="a" d="M306.15,216.19c-0.41,0-.81,0-1.21,0v0h1.21Z" transform="translate(-277.94 -216.19)"/><path class="a" d="M307.44,216.19v0c-0.43,0-.85,0-1.29,0h1.29Z" transform="translate(-277.94 -216.19)"/><path class="a" d="M306,272.61h-1v0Z" transform="translate(-277.94 -216.19)"/><path class="a" d="M307.45,272.58v0h-0.73Z" transform="translate(-277.94 -216.19)"/><path class="a" d="M334.37,243.25v1.15c0-.38,0-0.77,0-1.15h0Z" transform="translate(-277.94 -216.19)"/><path class="a" d="M334.38,245.74h0c0-.45,0-0.9,0-1.34v1.34Z" transform="translate(-277.94 -216.19)"/><path class="a" d="M334.35,243.25a28.24,28.24,0,0,0-26.91-27c-0.43,0-.85,0-1.29,0s-0.81,0-1.21,0a28.21,28.21,0,0,0,0,56.37l1,0h0.76l0.73,0a28.21,28.21,0,0,0,26.88-26.84c0-.45,0-0.9,0-1.34S334.36,243.63,334.35,243.25Zm-10.44,2.51h7.93a25.76,25.76,0,0,1-24.4,24.33l0-7.9-2.5,0,0,7.88a25.76,25.76,0,0,1-24.48-24.34h7.85v-2.5h-7.85a25.75,25.75,0,0,1,24.48-24.54v8h2.5v-8a25.71,25.71,0,0,1,24.4,24.56h-7.95Z" transform="translate(-277.94 -216.19)"/></svg>