<svg xmlns="http://www.w3.org/2000/svg" viewBox="0 0 53.09 58.26"><defs><style>.a{fill:#999;}</style></defs><title>icons-pressure</title><path class="a" d="M109.7,203.82c-1.21-2.17.12-2.4,1.82-2.4H160c1.72,0,3,.26,1.8,2.41H109.7Z" transform="translate(-109.21 -145.56)"/><path class="a" d="M149.51,196.57c-3.47,0-6.95-.05-10.43,0-1.52,0-2.2-.51-2.12-2.06,0.06-1.34,0-2.68,0-4,0-.79-0.1-1.33-1.15-1.35a1.14,1.14,0,0,0-1.34,1.42c0,1.34,0,2.69,0,4a1.68,1.68,0,0,1-1.94,2c-7.11,0-14.22,0-21.33,0-0.87,0-2,0-2-1.13-0.08-1.42,1.16-1.27,2.06-1.27,6.08,0,12.16,0,18.24-.05,0.91,0,2.58.71,2.45-1.18-0.12-1.61,1.17-3.64-1.82-4.53-11.44-3.4-17.69-13-15.83-24.56,1.42-8.81,6.72-14.69,15.26-17.24,8.35-2.48,15.93-.51,21.86,5.84,11.38,12.18,6.16,30.94-9.75,35.86-2,.61-3.22,3.69-2.16,5.34,0.47,0.76,1.28.47,1.94,0.47,5.84,0,11.68,0,17.54,0a16.76,16.76,0,0,1,1.9,0,1.18,1.18,0,0,1,1.33,1.06,1.21,1.21,0,0,1-1.39,1.27c-1.73.08-3.47,0.05-5.21,0.06h-6.16Zm-13.8-9.82a19.39,19.39,0,1,0-19.34-19.31A19.47,19.47,0,0,0,135.71,186.75Z" transform="translate(-109.21 -145.56)"/><path class="a" d="M146.77,156.81c-1.9,2.55-3.79,5.1-5.69,7.64a8.4,8.4,0,0,0-1.9,3.71,3.19,3.19,0,0,1-3.75,2.8,3.32,3.32,0,0,1-3.21-3.43v0a3.23,3.23,0,0,1,3.07-3.54,5.18,5.18,0,0,0,2.72-1.26c2.78-2.11,5.57-4.19,8.36-6.28Z" transform="translate(-109.21 -145.56)"/></svg>