<svg xmlns="http://www.w3.org/2000/svg" viewBox="0 0 58.42 40.89"><defs><style>.a{fill:#999;}</style></defs><title>icon_mail</title><path class="a" d="M592.07,265H542.41a5.73,5.73,0,0,1-5.11-5.11V227.74c0-2.42,2.63-3.65,5-3.65h49.72c2.42,0,3.65,1.23,3.65,3.65v32.13C595.72,262.29,594.49,265,592.07,265Zm-0.2-2.92-17.69-16,0,0-6.68,5.6a1.46,1.46,0,0,1-1.91,0L559,246.11l-17.12,15.8a1.28,1.28,0,0,0,.53.16h49.46Zm-51.65-2.59,16.53-15.25-16.53-13.91v29.16ZM592.07,227H542.41a7.24,7.24,0,0,0-1.47.09l25.57,21.48L592.26,227h-0.19Zm0.73,3.36-16.4,13.75L592.8,259V230.38Z" transform="translate(-537.3 -224.09)"/></svg>