<svg xmlns="http://www.w3.org/2000/svg" viewBox="763 171.5 39.2 39.2"><defs><style>.a{fill:#929292;}</style></defs><path class="a" d="M-333.37,387.64a15.033,15.033,0,0,0,3.346-9.4A15.131,15.131,0,0,0-345.162,363.1,15.235,15.235,0,0,0-360.3,378.238a15.234,15.234,0,0,0,15.138,15.138,15.9,15.9,0,0,0,9.4-3.187L-323.65,402.3l2.55-2.55Zm-11.951,4.143a13.533,13.533,0,0,1-13.545-13.545,13.533,13.533,0,0,1,13.545-13.545,13.533,13.533,0,0,1,13.545,13.545A13.334,13.334,0,0,1-345.321,391.783Z" transform="translate(1123.3 -191.6)"/></svg>