<svg xmlns="http://www.w3.org/2000/svg" viewBox="0 0 57.75 57.74"><defs><style>.a{fill:none;stroke:#999;stroke-miterlimit:10;stroke-width:3px;}</style></defs><title>icon_home</title><path class="a" d="M301.21,171l-24-24a3.43,3.43,0,0,0-4.84,0l-24,24c-1,1-1.27,1.51-.74,2.79a4,4,0,0,0,3.55,2.11h3.42V199a1.6,1.6,0,0,0,1.71,1.71h9a1.68,1.68,0,0,0,1.71-1.71V182.55a1.69,1.69,0,0,1,1.71-1.71h11.51a1.68,1.68,0,0,1,1.71,1.71v16.39a1.72,1.72,0,0,0,1.71,1.78l9.1,0a1.68,1.68,0,0,0,1.71-1.71V175.86h4.2a3.42,3.42,0,0,0,3.16-2.11C302.48,172.47,302.19,171.93,301.21,171Z" transform="translate(-245.97 -144.5)"/></svg>